<svg width="541" height="112" viewBox="0 0 541 112" fill="none" xmlns="http://www.w3.org/2000/svg">
<g clip-path="url(#clip0_2638_8972)">
<g clip-path="url(#clip1_2638_8972)">
<path d="M343.818 78.3696C343.818 95.7306 335.47 111.994 316.004 111.994C308.676 111.994 303.523 109.493 300.033 106.036L298.435 111.994H288.956V26.2158H300.982V79.1837C300.982 89.9141 303.576 101.541 316.44 101.476C328.914 101.417 331.656 89.2947 331.656 79.1837C331.656 69.0727 328.909 57.0267 316.434 56.9737C313.816 57.0031 311.222 57.4881 308.77 58.4071V48.6264C312.092 47.3021 315.624 46.5791 319.199 46.491C336.248 46.491 343.818 63.3446 343.818 78.3696ZM234.824 111.994H246.857V26.2158H234.824V111.994ZM450.041 46.5146C446.465 46.6027 442.934 47.3257 439.612 48.65V58.4307C442.064 57.5111 444.657 57.026 447.276 56.9972C459.75 57.0503 462.498 69.1022 462.498 79.2073C462.498 89.3124 459.744 101.423 447.252 101.476C434.388 101.541 431.794 89.9141 431.794 79.1837V26.2158H419.768V112H429.248L430.839 106.042C434.335 109.499 439.488 112 446.816 112C466.271 112 474.63 95.7306 474.63 78.3755C474.63 63.3446 467.061 46.491 450.041 46.491V46.5146ZM535.523 95.0758V72.5944C535.523 54.8972 524.122 46.544 510.981 46.544C497.097 46.544 487.341 55.5697 487.341 55.5697L493.083 63.7812C494.38 62.7429 501.277 57.5753 510.321 57.5753C518.038 57.5753 524.293 61.1148 524.293 72.9779V86.9528C524.293 97.4 513.681 101.883 506.524 101.883C500.163 101.883 495.488 99.3349 495.488 93.7013C495.488 84.1625 508.576 81.3133 516.476 81.7144V72.5177C499.161 71.627 483.632 78.8297 483.632 94.421C483.632 105.264 492.039 111.977 504.632 111.977C514.064 111.977 522.218 108.337 526.203 104.361C528.337 109.824 534.132 111.977 538.63 111.977L540.988 103.175C537.204 102.349 535.541 100.538 535.541 95.0522L535.523 95.0758ZM404.711 95.0758V72.5944C404.711 54.8972 393.31 46.544 380.169 46.544C366.285 46.544 356.528 55.5697 356.528 55.5697L362.276 63.7812C363.567 62.7429 370.465 57.5753 379.509 57.5753C387.226 57.5753 393.486 61.1148 393.486 72.9779V86.9528C393.486 97.4 382.875 101.883 375.712 101.883C369.351 101.883 364.676 99.3349 364.676 93.7013C364.676 84.1625 377.763 81.3133 385.663 81.7144V72.5177C368.349 71.627 352.82 78.8297 352.82 94.421C352.82 105.264 361.227 111.977 373.819 111.977C383.252 111.977 391.405 108.337 395.391 104.361C397.525 109.824 403.32 111.977 407.818 111.977L410.176 103.175C406.391 102.349 404.729 100.538 404.729 95.0522L404.711 95.0758ZM219.774 95.0758V72.5944C219.774 54.8972 208.372 46.544 195.231 46.544C181.348 46.544 171.591 55.5697 171.591 55.5697L177.356 63.7812C178.647 62.7429 185.551 57.5753 194.589 57.5753C202.311 57.5753 208.566 61.1148 208.566 72.9779V86.9528C208.566 97.4 197.955 101.883 190.792 101.883C184.437 101.883 179.762 99.3349 179.762 93.7013C179.762 84.1625 192.844 81.3133 200.749 81.7144V72.5177C183.429 71.6506 167.924 78.8533 167.924 94.4446C167.924 105.287 176.331 112 188.923 112C198.356 112 206.503 108.361 210.488 104.385C212.628 109.847 218.418 112 222.922 112L225.28 103.199C221.454 102.349 219.803 100.538 219.803 95.0522L219.774 95.0758ZM261.872 112.024H273.899V48.4849H261.872V112.024ZM261.872 38.2853H273.899V26.2158H261.872V38.2853Z" fill="black"/>
<path d="M111.593 105.635C111.004 106.703 109.583 107.186 108.321 107.546L93.9424 111.611C92.6808 111.965 91.1067 112.254 90.0515 111.652C88.9962 111.05 88.4715 109.558 88.1355 108.301C67.2541 30.3626 64.3712 13.562 55.9703 13.562C47.5694 13.562 44.7102 30.3626 23.8052 108.301C23.4692 109.558 22.9327 111.05 21.8892 111.652C20.8458 112.254 19.254 111.965 17.9924 111.611L3.6136 107.546C2.35199 107.186 0.937117 106.703 0.347581 105.635C-0.241956 104.567 0.0174402 103.004 0.347581 101.783C21.7183 22.4224 33.6564 0 55.9703 0C78.2843 0 90.246 22.4165 111.587 101.783C111.917 103.004 112.165 104.603 111.593 105.635Z" fill="black"/>
<path d="M124.369 55.5043C124.356 56.2678 124.181 57.0198 123.856 57.7106L123.266 59.3446C123.007 60.3107 122.422 61.1571 121.61 61.7397C120.662 62.1379 119.607 62.1984 118.621 61.9108C99.884 57.7735 80.2971 60.1639 63.1035 68.6862C45.9098 77.2085 32.1409 91.3515 24.0767 108.773C23.4872 110.071 22.5557 112 20.457 112C19.6167 111.996 18.7818 111.865 17.9809 111.611L3.60214 107.546H3.56677C1.90428 107.074 -0.0117188 106.431 -0.0117188 104.184C0.0497224 103.211 0.31486 102.263 0.766474 101.399C10.9828 79.4875 29.1199 62.2653 51.5226 53.2035C73.9253 44.1418 98.928 43.9142 121.492 52.5666C122.612 52.9795 124.369 53.6402 124.369 55.5043Z" fill="black"/>
</g>
</g>
<defs>
<clipPath id="clip0_2638_8972">
<rect width="541" height="112" fill="white"/>
</clipPath>
<clipPath id="clip1_2638_8972">
<rect width="541" height="112" fill="white"/>
</clipPath>
</defs>
</svg>
