<svg width="545" height="112" viewBox="0 0 545 112" fill="none" xmlns="http://www.w3.org/2000/svg">
<g clip-path="url(#clip0_2638_8989)">
<g clip-path="url(#clip1_2638_8989)">
<path d="M346.503 78.3579C346.503 95.7189 338.091 111.983 318.473 111.983C311.088 111.983 305.895 109.481 302.378 106.025L300.768 111.983H291.214V26.2041H303.334V79.172C303.334 89.9024 305.949 101.53 318.912 101.465C331.484 101.406 334.247 89.283 334.247 79.172C334.247 69.0609 331.478 57.015 318.906 56.9619C316.268 56.9913 313.654 57.4764 311.183 58.3954V48.6147C314.531 47.2904 318.09 46.5674 321.693 46.4793C338.875 46.4793 346.503 63.3329 346.503 78.3579ZM236.662 111.983H248.788V26.2041H236.662V111.983ZM453.552 46.5028C449.949 46.5909 446.39 47.314 443.042 48.6383V58.419C445.513 57.4994 448.127 57.0143 450.766 56.9855C463.337 57.0386 466.106 69.0905 466.106 79.1956C466.106 89.3007 463.331 101.412 450.742 101.465C437.778 101.53 435.164 89.9024 435.164 79.172V26.2041H423.044V111.989H432.598L434.202 106.031C437.725 109.487 442.917 111.989 450.302 111.989C469.908 111.989 478.333 95.7189 478.333 78.3638C478.333 63.3329 470.705 46.4793 453.552 46.4793V46.5028ZM539.7 95.0641V72.5827C539.7 54.8854 528.21 46.5323 514.967 46.5323C500.975 46.5323 491.142 55.558 491.142 55.558L496.929 63.7695C498.236 62.7312 505.187 57.5636 514.301 57.5636C522.078 57.5636 528.382 61.1031 528.382 72.9662V86.941C528.382 97.3883 517.688 101.872 510.475 101.872C504.064 101.872 499.353 99.3232 499.353 93.6896C499.353 84.1508 512.543 81.3016 520.504 81.7027V72.506C503.054 71.6152 487.405 78.818 487.405 94.4093C487.405 105.252 495.877 111.965 508.568 111.965C518.074 111.965 526.291 108.325 530.307 104.349C532.457 109.812 538.298 111.965 542.831 111.965L545.207 103.164C541.393 102.338 539.718 100.527 539.718 95.0405L539.7 95.0641ZM407.87 95.0641V72.5827C407.87 54.8854 396.38 46.5323 383.137 46.5323C369.145 46.5323 359.313 55.558 359.313 55.558L365.105 63.7695C366.406 62.7312 373.358 57.5636 382.472 57.5636C390.249 57.5636 396.558 61.1031 396.558 72.9662V86.941C396.558 97.3883 385.864 101.872 378.645 101.872C372.235 101.872 367.523 99.3232 367.523 93.6896C367.523 84.1508 380.713 81.3016 388.674 81.7027V72.506C371.225 71.6152 355.576 78.818 355.576 94.4093C355.576 105.252 364.048 111.965 376.738 111.965C386.244 111.965 394.461 108.325 398.477 104.349C400.628 109.812 406.468 111.965 411.001 111.965L413.378 103.164C409.563 102.338 407.888 100.527 407.888 95.0405L407.87 95.0641ZM221.494 95.0641V72.5827C221.494 54.8854 210.004 46.5323 196.761 46.5323C182.769 46.5323 172.937 55.558 172.937 55.558L178.747 63.7695C180.048 62.7312 187.005 57.5636 196.113 57.5636C203.896 57.5636 210.2 61.1031 210.2 72.9662V86.941C210.2 97.3883 199.506 101.872 192.287 101.872C185.883 101.872 181.171 99.3232 181.171 93.6896C181.171 84.1508 194.355 81.3016 202.322 81.7027V72.506C184.867 71.6388 169.241 78.8416 169.241 94.4329C169.241 105.275 177.713 111.989 190.404 111.989C199.91 111.989 208.121 108.349 212.137 104.373C214.293 109.835 220.128 111.989 224.667 111.989L227.043 103.187C223.187 102.338 221.524 100.527 221.524 95.0405L221.494 95.0641ZM263.92 112.012H276.041V48.4731H263.92V112.012ZM263.92 38.2736H276.041V26.2041H263.92V38.2736Z" fill="black"/>
<path d="M112.473 105.623C111.879 106.691 110.447 107.175 109.175 107.534L94.6848 111.599C93.4134 111.953 91.8271 112.242 90.7636 111.64C89.7001 111.039 89.1713 109.546 88.8327 108.29C67.7889 30.3508 64.8836 13.5503 56.4174 13.5503C47.9512 13.5503 45.0697 30.3508 24.0021 108.29C23.6635 109.546 23.1228 111.039 22.0712 111.64C21.0196 112.242 19.4155 111.953 18.1441 111.599L3.65345 107.534C2.38203 107.175 0.956155 106.691 0.362033 105.623C-0.232089 104.555 0.029325 102.992 0.362033 101.771C21.8989 22.4107 33.9299 -0.0117188 56.4174 -0.0117188C78.9049 -0.0117188 90.9597 22.4048 112.467 101.771C112.8 102.992 113.049 104.591 112.473 105.623Z" fill="#FDB913"/>
<path d="M125.348 55.4926C125.335 56.2561 125.158 57.0081 124.831 57.6989L124.237 59.3329C123.976 60.299 123.386 61.1453 122.567 61.728C121.613 62.1262 120.549 62.1866 119.555 61.8991C100.673 57.7618 80.9334 60.1522 63.6061 68.6745C46.2787 77.1968 32.4027 91.3398 24.2758 108.761C23.6817 110.059 22.743 111.988 20.6279 111.988C19.7811 111.985 18.9397 111.853 18.1326 111.599L3.64197 107.534H3.60632C1.9309 107.062 0 106.419 0 104.172C0.061919 103.199 0.329119 102.251 0.784245 101.388C11.08 79.4758 29.3582 62.2535 51.9351 53.1918C74.5121 44.13 99.7092 43.9025 122.448 52.5549C123.577 52.9678 125.348 53.6285 125.348 55.4926Z" fill="url(#paint0_linear_2638_8989)"/>
</g>
</g>
<defs>
<linearGradient id="paint0_linear_2638_8989" x1="0.0118824" y1="79.0949" x2="125.348" y2="79.0949" gradientUnits="userSpaceOnUse">
<stop offset="0.3" stop-color="#FDB913"/>
<stop offset="0.75" stop-color="#F7941F"/>
</linearGradient>
<clipPath id="clip0_2638_8989">
<rect width="545" height="112" fill="white"/>
</clipPath>
<clipPath id="clip1_2638_8989">
<rect width="545.208" height="112" fill="white"/>
</clipPath>
</defs>
</svg>
