<svg width="48" height="48" viewBox="0 0 48 48" fill="none" xmlns="http://www.w3.org/2000/svg">
<g clip-path="url(#clip0_8564_220398)">
<path fill-rule="evenodd" clip-rule="evenodd" d="M7.5 28.685C7.5 35.5619 17.2951 40.6734 21.7907 42.6564C23.2106 43.2812 24.7894 43.2812 26.2093 42.6564C30.7049 40.6734 40.5 35.5619 40.5 28.685V14.0889C40.5 11.8076 39.0464 9.77249 36.8611 9.00104L28.4619 5.26672C25.5691 4.24443 22.4068 4.24443 19.514 5.26672L11.1292 9.00104C8.95362 9.77249 7.5 11.8076 7.5 14.0889V28.685Z" fill="url(#paint0_linear_8564_220398)"/>
<path fill-rule="evenodd" clip-rule="evenodd" d="M22.1924 39.7292C18.5141 38.0542 10.5 33.7367 10.5 27.9281V15.5993C10.5 13.6725 11.6893 11.9535 13.4694 11.3018L20.3296 8.14762C22.6965 7.28413 25.2838 7.28413 27.6507 8.14762L34.5228 11.3018C36.3107 11.9535 37.5 13.6725 37.5 15.5993V27.9281C37.5 33.7367 29.4859 38.0542 25.8076 39.7292C24.6459 40.2569 23.3541 40.2569 22.1924 39.7292ZM22.5439 36.802C19.5808 35.435 13.125 31.9116 13.125 27.1712V17.1098C13.125 15.5373 14.0831 14.1344 15.517 13.6027L21.0433 11.0285C22.9499 10.3238 25.0342 10.3238 26.9408 11.0285L32.4767 13.6027C33.9169 14.1344 34.875 15.5373 34.875 17.1098V27.1712C34.875 31.9116 28.4192 35.435 25.4561 36.802C24.5203 37.2327 23.4797 37.2327 22.5439 36.802Z" fill="url(#paint1_linear_8564_220398)"/>
<path fill-rule="evenodd" clip-rule="evenodd" d="M29.9442 18.4687C30.4346 18.9405 30.4594 19.731 29.9997 20.2343L23.6098 27.2295C23.3797 27.4814 23.0583 27.6243 22.7219 27.6243C22.3855 27.6243 22.0641 27.4814 21.834 27.2295L18.0001 23.0324C17.5403 22.5291 17.5652 21.7386 18.0556 21.2668C18.546 20.7949 19.3162 20.8204 19.7759 21.3237L22.7219 24.5488L28.2238 18.5257C28.6836 18.0224 29.4538 17.9969 29.9442 18.4687Z" fill="white"/>
</g>
<defs>
<linearGradient id="paint0_linear_8564_220398" x1="24" y1="4.5" x2="24" y2="39.375" gradientUnits="userSpaceOnUse">
<stop stop-color="#B5BBBF"/>
<stop offset="1" stop-color="#71777C"/>
</linearGradient>
<linearGradient id="paint1_linear_8564_220398" x1="32.0878" y1="22.8746" x2="19.1269" y2="41.7688" gradientUnits="userSpaceOnUse">
<stop stop-color="#FFBD21"/>
<stop offset="1" stop-color="#FFD56F"/>
</linearGradient>
<clipPath id="clip0_8564_220398">
<rect width="48" height="48" fill="white"/>
</clipPath>
</defs>
</svg>
