<svg width="48" height="48" viewBox="0 0 48 48" fill="none" xmlns="http://www.w3.org/2000/svg">
<rect x="6.42737" y="4.5" width="30.4662" height="38.9996" rx="7" fill="url(#paint0_linear_8564_220441)"/>
<path d="M6.375 7.12502C6.375 5.67526 7.61703 4.5 9.14915 4.5H36.9758C38.508 4.5 39.75 5.67526 39.75 7.12502V40.875C39.75 42.3247 38.508 43.5 36.9758 43.5H9.14916C7.61703 43.5 6.375 42.3247 6.375 40.875V7.12502Z" fill="url(#paint1_linear_8564_220441)"/>
<path fill-rule="evenodd" clip-rule="evenodd" d="M17.25 36.6872C17.25 36.1221 17.7081 35.6641 18.2731 35.6641H31.7783C32.3433 35.6641 32.8014 36.1221 32.8014 36.6872C32.8014 37.2522 32.3433 37.7103 31.7783 37.7103H18.2731C17.7081 37.7103 17.25 37.2522 17.25 36.6872Z" fill="url(#paint2_linear_8564_220441)"/>
<path fill-rule="evenodd" clip-rule="evenodd" d="M16.125 18.859C16.125 14.0338 20.0361 10.1221 24.8612 10.1211H24.8628C29.6886 10.1211 33.6009 14.0332 33.6009 18.859C33.6009 23.6849 29.6888 27.597 24.8629 27.597C20.0371 27.597 16.125 23.6849 16.125 18.859ZM20.8466 19.6592C20.9475 22.0668 21.4991 24.1924 22.3172 25.6366C19.8258 24.7003 17.9875 22.4298 17.6728 19.6956L20.8466 19.6592ZM22.3472 19.642C22.4326 21.5596 22.8264 23.2246 23.373 24.4091C24.0517 25.8795 24.6869 26.097 24.8628 26.097C25.0387 26.097 25.6739 25.8795 26.3525 24.4091C26.9047 23.2127 27.3009 21.5262 27.3808 19.5842L22.3472 19.642ZM27.3787 18.0841L22.3444 18.1419C22.4236 16.1965 22.8201 14.507 23.373 13.309C24.0517 11.8386 24.6869 11.6211 24.8628 11.6211C25.0387 11.6211 25.6739 11.8386 26.3525 13.309C26.9 14.4951 27.2941 16.1631 27.3787 18.0841ZM28.8826 19.567C28.7921 22.0126 28.2369 24.1741 27.4083 25.6367C29.9499 24.6818 31.8119 22.3382 32.0701 19.5304L28.8826 19.567ZM32.054 18.0305L28.8793 18.0669C28.7793 15.6559 28.2274 13.5271 27.4083 12.0813C29.9023 13.0184 31.7419 15.2926 32.054 18.0305ZM20.8426 18.1591L17.655 18.1957C17.9104 15.3844 19.7734 13.0374 22.3172 12.0815C21.4878 13.5457 20.9322 15.7103 20.8426 18.1591Z" fill="url(#paint3_linear_8564_220441)"/>
<path d="M6.42737 7.125C6.42737 5.67525 7.60262 4.5 9.05237 4.5H10.9226V43.4996H9.05237C7.60262 43.4996 6.42737 42.3244 6.42737 40.8746V7.125Z" fill="url(#paint4_linear_8564_220441)"/>
<defs>
<linearGradient id="paint0_linear_8564_220441" x1="21.6605" y1="4.5" x2="21.6605" y2="43.4996" gradientUnits="userSpaceOnUse">
<stop stop-color="#FFD36D"/>
<stop offset="1" stop-color="#FFB300"/>
</linearGradient>
<linearGradient id="paint1_linear_8564_220441" x1="39.75" y1="6.58313" x2="16.6931" y2="42.1202" gradientUnits="userSpaceOnUse">
<stop stop-color="#C6CBD0"/>
<stop offset="1" stop-color="#666C72"/>
</linearGradient>
<linearGradient id="paint2_linear_8564_220441" x1="17.25" y1="37.7103" x2="35.0523" y2="35.6641" gradientUnits="userSpaceOnUse">
<stop stop-color="white"/>
<stop offset="1" stop-color="white" stop-opacity="0"/>
</linearGradient>
<linearGradient id="paint3_linear_8564_220441" x1="31.6965" y1="8.87653" x2="24.8629" y2="27.597" gradientUnits="userSpaceOnUse">
<stop stop-color="white" stop-opacity="0.62"/>
<stop offset="1" stop-color="white"/>
</linearGradient>
<linearGradient id="paint4_linear_8564_220441" x1="8.67499" y1="4.5" x2="8.67499" y2="43.4996" gradientUnits="userSpaceOnUse">
<stop stop-color="#FFD36D"/>
<stop offset="1" stop-color="#FFB300"/>
</linearGradient>
</defs>
</svg>
